<svg xmlns="http://www.w3.org/2000/svg" viewBox="0 0 24 24">
  <path d="M12.546 2.04c-.473-.738-.793-1.203-.865-1.327a.113.113 0 0 0-.032-.04v-.001L11.613.63v22.07l.037.007c.053.012.107-.003.146-.042.585-.578.793-1.49.869-2.224v-.001l.002-.016c.955-6.117-2.084-13.09-4.498-16.462a12.14 12.14 0 0 0-.655-.832s.031 5.985.067 6.424c.284 3.449 2.271 6.547 4.965 9.465V.672h-.037c-.079.127-.36.593-.795 1.245l.037.123Z" fill="#4DB33D"/>
  <circle cx="20" cy="20" r="4" fill="#22C55E" stroke="#1E1E1E" stroke-width="1.5"/>
</svg>
