<svg xmlns="http://www.w3.org/2000/svg" viewBox="0 0 24 24">
  <path d="M5.725 4.572C5.456 4.572 5.274 4.605 5.084 4.649V4.68H5.117C5.243 4.923 5.459 5.101 5.618 5.319 5.744 5.569 5.852 5.82 5.978 6.068L6.011 6.033C6.231 5.878 6.339 5.63 6.339 5.253 6.245 5.143 6.231 5.033 6.151 4.926 6.058 4.769 5.856 4.692 5.73 4.567ZM21.684 18.169C20.432 18.137 19.461 18.263 18.649 18.609 18.415 18.703 18.04 18.703 18.007 19 18.136 19.124 18.155 19.328 18.265 19.501 18.452 19.815 18.775 20.233 19.074 20.453 19.402 20.711 19.73 20.959 20.074 21.179 20.682 21.553 21.373 21.776 21.969 22.153 22.309 22.373 22.655 22.651 22.999 22.885 23.17 23.002 23.28 23.213 23.5 23.288V23.241C23.392 23.1 23.36 22.897 23.254 22.74 23.097 22.583 22.941 22.443 22.786 22.288A7.543 7.543 0 0 0 21.16 20.709C20.659 20.367 19.564 19.889 19.358 19.316L19.327 19.283C19.669 19.253 20.076 19.129 20.404 19.035 20.935 18.895 21.422 18.925 21.972 18.787 22.22 18.724 22.47 18.647 22.721 18.567V18.427C22.44 18.146 22.229 17.764 21.939 17.502A20.751 20.751 0 0 0 19.355 15.576C18.864 15.263 18.241 15.061 17.724 14.795 17.537 14.701 17.223 14.654 17.116 14.497 16.835 14.156 16.671 13.702 16.472 13.294A41.4 41.4 0 0 1 15.192 10.573C14.911 9.96 14.74 9.349 14.396 8.787 12.781 6.126 11.033 4.514 8.344 2.936 7.766 2.609 7.073 2.468 6.341 2.295 5.95 2.276 5.559 2.248 5.171 2.232 4.913 2.122 4.665 1.825 4.445 1.682 3.556 1.12 1.253-0.097 0.598 1.513 0.177 2.529 1.223 3.531 1.585 4.046 1.855 4.404 2.194 4.813 2.381 5.216 2.491 5.487 2.522 5.766 2.632 6.049 2.88 6.737 3.116 7.505 3.444 8.148 3.614 8.476 3.802 8.82 4.022 9.115 4.148 9.286 4.363 9.365 4.412 9.646 4.192 9.964 4.178 10.428 4.052 10.816 3.49 12.588 3.71 14.778 4.506 16.082 4.756 16.47 5.353 17.332 6.151 17.002 6.853 16.721 6.699 15.831 6.9 15.047 6.947 14.86 6.917 14.736 7.013 14.61V14.645C7.233 15.085 7.453 15.504 7.654 15.944 8.136 16.711 8.978 17.507 9.683 18.038 10.057 18.319 10.355 18.806 10.823 18.979V18.932H10.787C10.687 18.797 10.553 18.731 10.427 18.621A8.062 8.062 0 0 1 9.608 17.685 20.501 20.501 0 0 1 7.86 14.834C7.602 14.343 7.387 13.814 7.181 13.33 7.087 13.142 7.087 12.862 6.931 12.768 6.697 13.11 6.353 13.407 6.182 13.828 5.885 14.502 5.854 15.331 5.742 16.192 5.679 16.208 5.709 16.192 5.679 16.225 5.178 16.103 5.007 15.583 4.82 15.148 4.352 14.036 4.274 12.251 4.679 10.971 4.789 10.643 5.257 9.609 5.07 9.295 4.972 8.998 4.663 8.827 4.492 8.586A5.799 5.799 0 0 1 3.93 7.586C3.556 6.711 3.369 5.742 2.961 4.867 2.774 4.462 2.447 4.039 2.18 3.666 1.883 3.245 1.555 2.948 1.319 2.45 1.241 2.279 1.131 1.995 1.255 1.808 1.288 1.682 1.354 1.633 1.475 1.598 1.681 1.429 2.259 1.649 2.463 1.743 3.041 1.977 3.528 2.197 4.012 2.524 4.232 2.679 4.469 2.976 4.749 3.053H5.077C5.578 3.163 6.142 3.086 6.61 3.224 7.441 3.491 8.19 3.879 8.861 4.301A13.932 13.932 0 0 1 13.741 9.651C13.928 10.011 14.01 10.341 14.181 10.715 14.509 11.488 14.913 12.267 15.246 13.014 15.573 13.751 15.889 14.502 16.36 15.113 16.594 15.441 17.535 15.611 17.956 15.782 18.267 15.923 18.752 16.051 19.032 16.222 19.571 16.55 20.095 16.924 20.6 17.285 20.858 17.463 21.637 17.853 21.684 18.169Z" fill="#5B9BD5"/>
  <circle cx="20" cy="20" r="4" fill="#22C55E" stroke="#1E1E1E" stroke-width="1.5"/>
</svg>
